Input #0, lavfi, from 'rgbtestsrc=duration=60:size=1920x1080:rate=30':
  Duration: N/A, start: 0.000000, bitrate: N/A
  Stream #0:0: Video: rawvideo (RGBA / 0x41424752), rgba, 1920x1080 [SAR 1:1 DAR 16:9], 30 tbr, 30 tbn, 30 tbc
Stream mapping:
  Stream #0:0 -> #0:0 (rawvideo (native) -> h264 (h264_nvenc))
Press [q] to stop, [?] for help
Output #0, mp4, to './test_results/temp_tests_gpu/test_test_50_27/output.mp4':
  Metadata:
    encoder         : Lavf58.76.100
  Stream #0:0: Video: h264 (Main) (avc1 / 0x31637661), rgb0(pc, gbr/unknown/unknown, progressive), 1280x720 [SAR 1:1 DAR 16:9], q=2-31, 30 fps, 15360 tbn
    Metadata:
      encoder         : Lavc58.134.100 h264_nvenc
    Side data:
      cpb: bitrate max/min/avg: 3000000/0/0 buffer size: 4000000 vbv_delay: N/A
frame=    1 fps=0.0 q=0.0 size=       0kB time=00:00:00.00 bitrate=N/A speed=N/A    frame=    2 fps=1.3 q=0.0 size=       0kB time=00:00:00.00 bitrate=N/A speed=   0x    frame=   12 fps=5.8 q=23.0 size=       0kB time=00:00:00.30 bitrate=   1.3kbits/s speed=0.146x    frame=   23 fps=8.9 q=23.0 size=       0kB time=00:00:00.66 bitrate=   0.6kbits/s speed=0.259x    frame=   37 fps= 12 q=23.0 size=       0kB time=00:00:01.13 bitrate=   0.3kbits/s speed=0.366x    frame=   50 fps= 14 q=23.0 size=       0kB time=00:00:01.56 bitrate=   0.2kbits/s speed=0.435x    frame=   62 fps= 15 q=23.0 size=       0kB time=00:00:01.96 bitrate=   0.2kbits/s speed=0.48x    frame=   74 fps= 16 q=23.0 size=       0kB time=00:00:02.36 bitrate=   0.2kbits/s speed=0.514x    frame=   87 fps= 17 q=23.0 size=       0kB time=00:00:02.80 bitrate=   0.1kbits/s speed=0.548x    frame=  101 fps= 18 q=23.0 size=       0kB time=00:00:03.26 bitrate=   0.1kbits/s speed=0.576x    frame=  114 fps= 18 q=23.0 size=       0kB time=00:00:03.70 bitrate=   0.1kbits/s speed=0.599x    frame=  128 fps= 19 q=23.0 size=       0kB time=00:00:04.16 bitrate=   0.1kbits/s speed=0.622x    frame=  144 fps= 20 q=23.0 size=       0kB time=00:00:04.70 bitrate=   0.1kbits/s speed=0.651x    frame=  160 fps= 21 q=23.0 size=       0kB time=00:00:05.23 bitrate=   0.1kbits/s speed=0.674x    frame=  176 fps= 21 q=23.0 size=       0kB time=00:00:05.76 bitrate=   0.1kbits/s speed=0.697x    frame=  193 fps= 22 q=23.0 size=       0kB time=00:00:06.33 bitrate=   0.1kbits/s speed=0.721x    frame=  211 fps= 23 q=23.0 size=       0kB time=00:00:06.93 bitrate=   0.1kbits/s speed=0.745x    frame=  228 fps= 23 q=23.0 size=       0kB time=00:00:07.50 bitrate=   0.1kbits/s speed=0.763x    frame=  245 fps= 24 q=23.0 size=       0kB time=00:00:08.06 bitrate=   0.0kbits/s speed=0.779x    frame=  262 fps= 24 q=23.0 size=       0kB time=00:00:08.63 bitrate=   0.0kbits/s speed=0.794x    frame=  279 fps= 24 q=23.0 size=       0kB time=00:00:09.20 bitrate=   0.0kbits/s speed=0.807x    frame=  295 fps= 25 q=23.0 size=       0kB time=00:00:09.73 bitrate=   0.0kbits/s speed=0.817x    frame=  312 fps= 25 q=23.0 size=       0kB time=00:00:10.30 bitrate=   0.0kbits/s speed=0.829x    frame=  328 fps= 25 q=23.0 size=       0kB time=00:00:10.83 bitrate=   0.0kbits/s speed=0.835x    frame=  343 fps= 25 q=23.0 size=       0kB time=00:00:11.33 bitrate=   0.0kbits/s speed=0.84x    frame=  356 fps= 25 q=23.0 size=       0kB time=00:00:11.76 bitrate=   0.0kbits/s speed=0.84x    frame=  369 fps= 25 q=23.0 size=       0kB time=00:00:12.20 bitrate=   0.0kbits/s speed=0.84x    frame=  383 fps= 25 q=23.0 size=       0kB time=00:00:12.66 bitrate=   0.0kbits/s speed=0.843x    frame=  397 fps= 26 q=23.0 size=       0kB time=00:00:13.13 bitrate=   0.0kbits/s speed=0.846x    frame=  411 fps= 26 q=23.0 size=       0kB time=00:00:13.60 bitrate=   0.0kbits/s speed=0.849x    frame=  426 fps= 26 q=23.0 size=       0kB time=00:00:14.10 bitrate=   0.0kbits/s speed=0.851x    frame=  441 fps= 26 q=23.0 size=       0kB time=00:00:14.60 bitrate=   0.0kbits/s speed=0.854x    frame=  456 fps= 26 q=23.0 size=       0kB time=00:00:15.10 bitrate=   0.0kbits/s speed=0.858x    frame=  472 fps= 26 q=23.0 size=       0kB time=00:00:15.63 bitrate=   0.0kbits/s speed=0.863x    frame=  488 fps= 26 q=23.0 size=       0kB time=00:00:16.16 bitrate=   0.0kbits/s speed=0.868x    frame=  504 fps= 26 q=23.0 size=       0kB time=00:00:16.70 bitrate=   0.0kbits/s speed=0.873x    frame=  523 fps= 27 q=23.0 size=       0kB time=00:00:17.33 bitrate=   0.0kbits/s speed=0.882x    frame=  542 fps= 27 q=23.0 size=       0kB time=00:00:17.96 bitrate=   0.0kbits/s speed=0.892x    frame=  562 fps= 27 q=23.0 size=       0kB time=00:00:18.63 bitrate=   0.0kbits/s speed=0.902x    frame=  582 fps= 27 q=23.0 size=       0kB time=00:00:19.30 bitrate=   0.0kbits/s speed=0.911x    frame=  602 fps= 28 q=23.0 size=       0kB time=00:00:19.96 bitrate=   0.0kbits/s speed=0.92x    frame=  622 fps= 28 q=23.0 size=       0kB time=00:00:20.63 bitrate=   0.0kbits/s speed=0.928x    frame=  642 fps= 28 q=23.0 size=       0kB time=00:00:21.30 bitrate=   0.0kbits/s speed=0.936x    frame=  662 fps= 28 q=23.0 size=       0kB time=00:00:21.96 bitrate=   0.0kbits/s speed=0.944x    frame=  682 fps= 29 q=23.0 size=       0kB time=00:00:22.63 bitrate=   0.0kbits/s speed=0.952x    frame=  701 fps= 29 q=23.0 size=       0kB time=00:00:23.26 bitrate=   0.0kbits/s speed=0.958x    frame=  720 fps= 29 q=23.0 size=       0kB time=00:00:23.90 bitrate=   0.0kbits/s speed=0.963x    frame=  738 fps= 29 q=23.0 size=       0kB time=00:00:24.50 bitrate=   0.0kbits/s speed=0.968x    frame=  757 fps= 29 q=23.0 size=       0kB time=00:00:25.13 bitrate=   0.0kbits/s speed=0.973x    frame=  776 fps= 29 q=23.0 size=       0kB time=00:00:25.76 bitrate=   0.0kbits/s speed=0.978x    frame=  796 fps= 30 q=23.0 size=       0kB time=00:00:26.43 bitrate=   0.0kbits/s speed=0.984x    frame=  816 fps= 30 q=23.0 size=       0kB time=00:00:27.10 bitrate=   0.0kbits/s speed=0.99x    frame=  836 fps= 30 q=23.0 size=       0kB time=00:00:27.76 bitrate=   0.0kbits/s speed=0.995x    frame=  855 fps= 30 q=23.0 size=       0kB time=00:00:28.40 bitrate=   0.0kbits/s speed=   1x    frame=  874 fps= 30 q=23.0 size=       0kB time=00:00:29.03 bitrate=   0.0kbits/s speed=   1x    frame=  893 fps= 30 q=23.0 size=       0kB time=00:00:29.66 bitrate=   0.0kbits/s speed=1.01x    frame=  912 fps= 30 q=23.0 size=       0kB time=00:00:30.30 bitrate=   0.0kbits/s speed=1.01x    frame=  929 fps= 31 q=23.0 size=       0kB time=00:00:30.86 bitrate=   0.0kbits/s speed=1.01x    frame=  948 fps= 31 q=23.0 size=       0kB time=00:00:31.50 bitrate=   0.0kbits/s speed=1.02x    frame=  967 fps= 31 q=23.0 size=       0kB time=00:00:32.13 bitrate=   0.0kbits/s speed=1.02x    frame=  987 fps= 31 q=23.0 size=       0kB time=00:00:32.80 bitrate=   0.0kbits/s speed=1.03x    frame= 1007 fps= 31 q=23.0 size=       0kB time=00:00:33.46 bitrate=   0.0kbits/s speed=1.03x    frame= 1027 fps= 31 q=23.0 size=       0kB time=00:00:34.13 bitrate=   0.0kbits/s speed=1.03x    frame= 1047 fps= 31 q=23.0 size=       0kB time=00:00:34.80 bitrate=   0.0kbits/s speed=1.04x    frame= 1067 fps= 31 q=23.0 size=       0kB time=00:00:35.46 bitrate=   0.0kbits/s speed=1.04x    frame= 1087 fps= 31 q=23.0 size=       0kB time=00:00:36.13 bitrate=   0.0kbits/s speed=1.05x    frame= 1107 fps= 32 q=23.0 size=       0kB time=00:00:36.80 bitrate=   0.0kbits/s speed=1.05x    frame= 1127 fps= 32 q=23.0 size=       0kB time=00:00:37.46 bitrate=   0.0kbits/s speed=1.05x    frame= 1147 fps= 32 q=23.0 size=       0kB time=00:00:38.13 bitrate=   0.0kbits/s speed=1.06x    frame= 1167 fps= 32 q=23.0 size=       0kB time=00:00:38.80 bitrate=   0.0kbits/s speed=1.06x    frame= 1187 fps= 32 q=23.0 size=       0kB time=00:00:39.46 bitrate=   0.0kbits/s speed=1.06x    frame= 1207 fps= 32 q=23.0 size=       0kB time=00:00:40.13 bitrate=   0.0kbits/s speed=1.06x    frame= 1227 fps= 32 q=23.0 size=       0kB time=00:00:40.80 bitrate=   0.0kbits/s speed=1.07x    frame= 1246 fps= 32 q=23.0 size=       0kB time=00:00:41.43 bitrate=   0.0kbits/s speed=1.07x    frame= 1265 fps= 32 q=23.0 size=       0kB time=00:00:42.06 bitrate=   0.0kbits/s speed=1.07x    frame= 1284 fps= 32 q=23.0 size=       0kB time=00:00:42.70 bitrate=   0.0kbits/s speed=1.07x    frame= 1303 fps= 32 q=23.0 size=       0kB time=00:00:43.33 bitrate=   0.0kbits/s speed=1.08x    frame= 1322 fps= 32 q=23.0 size=       0kB time=00:00:43.96 bitrate=   0.0kbits/s speed=1.08x    frame= 1341 fps= 32 q=23.0 size=       0kB time=00:00:44.60 bitrate=   0.0kbits/s speed=1.08x    frame= 1360 fps= 33 q=23.0 size=       0kB time=00:00:45.23 bitrate=   0.0kbits/s speed=1.08x    frame= 1379 fps= 33 q=23.0 size=       0kB time=00:00:45.86 bitrate=   0.0kbits/s speed=1.08x    frame= 1398 fps= 33 q=23.0 size=       0kB time=00:00:46.50 bitrate=   0.0kbits/s speed=1.09x    frame= 1417 fps= 33 q=23.0 size=       0kB time=00:00:47.13 bitrate=   0.0kbits/s speed=1.09x    frame= 1436 fps= 33 q=23.0 size=       0kB time=00:00:47.76 bitrate=   0.0kbits/s speed=1.09x    frame= 1455 fps= 33 q=23.0 size=       0kB time=00:00:48.40 bitrate=   0.0kbits/s speed=1.09x    frame= 1474 fps= 33 q=23.0 size=       0kB time=00:00:49.03 bitrate=   0.0kbits/s speed=1.09x    frame= 1493 fps= 33 q=23.0 size=       0kB time=00:00:49.66 bitrate=   0.0kbits/s speed=1.09x    frame= 1512 fps= 33 q=23.0 size=       0kB time=00:00:50.30 bitrate=   0.0kbits/s speed= 1.1x    frame= 1531 fps= 33 q=23.0 size=       0kB time=00:00:50.93 bitrate=   0.0kbits/s speed= 1.1x    frame= 1550 fps= 33 q=23.0 size=       0kB time=00:00:51.56 bitrate=   0.0kbits/s speed= 1.1x    frame= 1569 fps= 33 q=23.0 size=       0kB time=00:00:52.20 bitrate=   0.0kbits/s speed= 1.1x    frame= 1588 fps= 33 q=23.0 size=       0kB time=00:00:52.83 bitrate=   0.0kbits/s speed= 1.1x    frame= 1607 fps= 33 q=23.0 size=       0kB time=00:00:53.46 bitrate=   0.0kbits/s speed= 1.1x    frame= 1626 fps= 33 q=23.0 size=       0kB time=00:00:54.10 bitrate=   0.0kbits/s speed=1.11x    frame= 1645 fps= 33 q=23.0 size=       0kB time=00:00:54.73 bitrate=   0.0kbits/s speed=1.11x    frame= 1664 fps= 33 q=23.0 size=       0kB time=00:00:55.36 bitrate=   0.0kbits/s speed=1.11x    frame= 1683 fps= 33 q=19.0 size=       0kB time=00:00:56.00 bitrate=   0.0kbits/s speed=1.11x    frame= 1702 fps= 33 q=23.0 size=       0kB time=00:00:56.63 bitrate=   0.0kbits/s speed=1.11x    frame= 1721 fps= 33 q=23.0 size=       0kB time=00:00:57.26 bitrate=   0.0kbits/s speed=1.11x    frame= 1740 fps= 33 q=23.0 size=       0kB time=00:00:57.90 bitrate=   0.0kbits/s speed=1.11x    frame= 1759 fps= 33 q=23.0 size=       0kB time=00:00:58.53 bitrate=   0.0kbits/s speed=1.11x    frame= 1778 fps= 34 q=23.0 size=       0kB time=00:00:59.16 bitrate=   0.0kbits/s speed=1.12x    frame= 1797 fps= 34 q=23.0 size=       0kB time=00:00:59.80 bitrate=   0.0kbits/s speed=1.12x    [mp4 @ 0x5badb207d580] Starting second pass: moving the moov atom to the beginning of the file
frame= 1800 fps= 33 q=23.0 Lsize=     159kB time=00:00:59.96 bitrate=  21.7kbits/s speed=1.12x    
video:151kB audio:0kB subtitle:0kB other streams:0kB global headers:0kB muxing overhead: 5.300566%
